<svg width="1987" height="2249" viewBox="0 0 1987 2249" fill="none" xmlns="http://www.w3.org/2000/svg">
<path fill-rule="evenodd" clip-rule="evenodd" d="M340.005 1421.93V1060.36C340.005 1030.32 356.042 1002.57 382.066 987.577L857.593 713.56C891.593 693.968 934.056 718.508 934.056 757.749V1030.02C934.056 1061.46 917.288 1090.5 890.067 1106.23L482.08 1341.86C468.779 1349.54 460.586 1363.73 460.586 1379.09V1407.84C460.586 1417.13 465.541 1425.71 473.585 1430.35L1063.12 1770.78C1085.49 1783.69 1085.86 1815.84 1063.8 1829.26L1016.71 1857.92C999.688 1868.28 978.345 1868.42 961.186 1858.29L399.985 1526.99C362.814 1505.05 340.005 1465.1 340.005 1421.93ZM469.68 1075.54C464.736 1078.4 461.691 1083.68 461.691 1089.39V1186.65C461.691 1198.97 475.02 1206.67 485.686 1200.51L806.75 1015.29C811.703 1012.43 814.754 1007.14 814.754 1001.43V903.686C814.754 891.363 801.41 883.666 790.744 889.836L469.68 1075.54Z" fill="black"/>
<path fill-rule="evenodd" clip-rule="evenodd" d="M1577.92 1530.48L1264.05 1709.99C1237.98 1724.91 1205.93 1724.76 1179.99 1709.62L706.046 1432.88C672.159 1413.09 672.379 1364.05 706.442 1344.56L942.789 1209.39C970.076 1193.78 1003.62 1193.92 1030.78 1209.74L1437.87 1446.91C1451.14 1454.64 1467.53 1454.71 1480.87 1447.08L1505.82 1432.81C1513.88 1428.2 1518.87 1419.64 1518.91 1410.35L1521.72 729.589C1521.83 703.764 1549.56 687.482 1572.16 699.967L1620.41 726.614C1637.85 736.247 1648.57 754.702 1648.3 774.626L1639.34 1426.26C1638.74 1469.42 1615.39 1509.05 1577.92 1530.48ZM1212.85 1589.89C1217.79 1592.77 1223.88 1592.79 1228.84 1589.95L1313.27 1541.66C1323.96 1535.55 1324.02 1520.16 1313.39 1513.95L993.201 1327.21C988.262 1324.33 982.161 1324.31 977.197 1327.15L892.353 1375.67C881.656 1381.79 881.599 1397.19 892.251 1403.39L1212.85 1589.89Z" fill="black"/>
<path d="M339.847 802.353L338.711 760.258C338.262 743.627 347.027 728.105 361.5 719.899L922.035 402.077C966.599 376.808 1021.19 376.932 1065.64 402.401L1387.07 586.573C1401.06 594.592 1409.7 609.488 1409.7 625.618V654.68C1409.7 689.028 1372.77 710.713 1342.77 693.978L1043.65 527.095C1012.83 509.898 975.22 510.225 944.699 527.954L407.434 840.05C377.9 857.207 340.769 836.496 339.847 802.353Z" fill="black"/>
<path d="M1165.93 748.941C1162.73 779.426 1137.09 794.83 1108.67 783.347C1080.25 771.865 1059.81 737.844 1063.01 707.359C1066.22 676.874 1091.85 661.47 1120.27 672.953C1148.69 684.435 1169.14 718.457 1165.93 748.941Z" fill="black"/>
<path d="M1292.26 985.35C1289.06 1015.83 1263.42 1031.24 1235 1019.76C1206.58 1008.27 1186.14 974.253 1189.34 943.768C1192.55 913.283 1218.18 897.879 1246.6 909.362C1275.03 920.845 1295.47 954.866 1292.26 985.35Z" fill="black"/>
<path d="M1395.61 899.28C1424.03 910.762 1449.67 895.358 1452.87 864.874C1456.08 834.389 1435.64 800.368 1407.22 788.885C1378.79 777.403 1353.16 792.807 1349.95 823.291C1346.75 853.776 1367.19 887.797 1395.61 899.28Z" fill="black"/>
<path d="M1415.49 1220.51C1412.29 1250.99 1386.65 1266.39 1358.23 1254.91C1329.81 1243.43 1309.37 1209.41 1312.57 1178.92C1315.78 1148.44 1341.41 1133.03 1369.83 1144.52C1398.25 1156 1418.7 1190.02 1415.49 1220.51Z" fill="black"/>
<path d="M1071.29 1138.98C1099.71 1150.46 1125.35 1135.06 1128.55 1104.57C1131.76 1074.09 1111.32 1040.07 1082.89 1028.58C1054.47 1017.1 1028.84 1032.51 1025.63 1062.99C1022.43 1093.48 1042.87 1127.5 1071.29 1138.98Z" fill="black"/>
</svg>
